<svg xmlns="http://www.w3.org/2000/svg" width="300" height="300" viewBox="0 0 300 300" preserveAspectRatio="xMidYMid meet" version="1.1" style="display:block;">
<defs>
  <linearGradient id="cyanGrad" x1="0%" y1="0%" x2="100%" y2="100%">
    <stop offset="0%" style="stop-color:#ff0000;stop-opacity:1"/>
    <stop offset="100%" style="stop-color:#800000;stop-opacity:1"/>
  </linearGradient>
  <filter id="glow" x="-15%" y="-15%" width="130%" height="130%">
    <feGaussianBlur stdDeviation="0.8" result="blur"/>
    <feMerge><feMergeNode in="blur"/><feMergeNode in="SourceGraphic"/></feMerge>
  </filter>
  <clipPath id="hexClip">
    <path d="M 150.096 75.858 C 151.057 76.042 171.996 87.963 174.333 89.356 C 175.271 93.210 177.193 98.950 178.381 103.028 C 181.885 101.431 185.416 99.877 188.960 98.360 C 190.145 99.032 191.444 99.706 192.693 100.336 C 200.344 104.258 207.808 108.995 215.440 112.982 L 215.373 139.024 C 212.576 142.361 208.477 146.573 205.374 149.882 C 208.706 153.297 212.070 156.742 215.388 160.206 L 215.397 187.393 C 213.205 188.738 210.474 190.099 208.110 191.374 L 189.376 201.495 C 185.489 200.100 181.694 198.558 177.782 197.193 C 176.718 201.579 174.973 205.862 173.908 210.380 C 172.927 211.008 171.924 211.642 170.931 212.213 C 164.456 215.867 158.081 220.105 151.533 223.530 C 143.655 219.683 135.185 214.544 127.314 210.226 C 126.264 206.321 124.451 201.005 123.095 196.716 C 119.253 198.045 115.439 199.476 111.668 200.966 C 105.622 197.934 99.649 194.326 93.694 191.202 C 91.050 189.855 87.953 188.206 85.433 186.636 L 85.437 159.730 C 88.959 156.228 92.148 152.588 95.609 149.158 C 94.441 148.094 92.901 146.436 91.769 145.295 C 89.706 143.214 87.526 141.063 85.548 138.906 L 85.534 112.025 C 86.488 111.454 87.591 110.797 88.589 110.285 C 96.248 106.276 103.739 101.614 111.395 97.644 L 122.677 102.434 C 124.219 98.165 125.767 92.621 127.091 88.224 C 134.818 83.879 142.946 79.744 150.096 75.858 z"/>
  </clipPath>
</defs>

<!-- 1) BLACK BORDER HEX — scaled 1.06x from center (150,150) -->
<path d="M 150.096 75.858 C 151.057 76.042 171.996 87.963 174.333 89.356 C 175.271 93.210 177.193 98.950 178.381 103.028 C 181.885 101.431 185.416 99.877 188.960 98.360 C 190.145 99.032 191.444 99.706 192.693 100.336 C 200.344 104.258 207.808 108.995 215.440 112.982 L 215.373 139.024 C 212.576 142.361 208.477 146.573 205.374 149.882 C 208.706 153.297 212.070 156.742 215.388 160.206 L 215.397 187.393 C 213.205 188.738 210.474 190.099 208.110 191.374 L 189.376 201.495 C 185.489 200.100 181.694 198.558 177.782 197.193 C 176.718 201.579 174.973 205.862 173.908 210.380 C 172.927 211.008 171.924 211.642 170.931 212.213 C 164.456 215.867 158.081 220.105 151.533 223.530 C 143.655 219.683 135.185 214.544 127.314 210.226 C 126.264 206.321 124.451 201.005 123.095 196.716 C 119.253 198.045 115.439 199.476 111.668 200.966 C 105.622 197.934 99.649 194.326 93.694 191.202 C 91.050 189.855 87.953 188.206 85.433 186.636 L 85.437 159.730 C 88.959 156.228 92.148 152.588 95.609 149.158 C 94.441 148.094 92.901 146.436 91.769 145.295 C 89.706 143.214 87.526 141.063 85.548 138.906 L 85.534 112.025 C 86.488 111.454 87.591 110.797 88.589 110.285 C 96.248 106.276 103.739 101.614 111.395 97.644 L 122.677 102.434 C 124.219 98.165 125.767 92.621 127.091 88.224 C 134.818 83.879 142.946 79.744 150.096 75.858 z"
  fill="rgb(0,0,0)"
  transform="translate(150,150) scale(1.07) translate(-150,-150)"/>

<!-- 2) BLACK HEX BACKGROUND clipped -->
<rect width="300" height="300" fill="rgb(0,0,0)" clip-path="url(#hexClip)"/>

<!-- 3) CYAN FRAME -->
<path d="M 150.096 75.858 C 151.057 76.042 171.996 87.963 174.333 89.356 C 175.271 93.210 177.193 98.950 178.381 103.028 C 181.885 101.431 185.416 99.877 188.960 98.360 C 190.145 99.032 191.444 99.706 192.693 100.336 C 200.344 104.258 207.808 108.995 215.440 112.982 L 215.373 139.024 C 212.576 142.361 208.477 146.573 205.374 149.882 C 208.706 153.297 212.070 156.742 215.388 160.206 L 215.397 187.393 C 213.205 188.738 210.474 190.099 208.110 191.374 L 189.376 201.495 C 185.489 200.100 181.694 198.558 177.782 197.193 C 176.718 201.579 174.973 205.862 173.908 210.380 C 172.927 211.008 171.924 211.642 170.931 212.213 C 164.456 215.867 158.081 220.105 151.533 223.530 C 143.655 219.683 135.185 214.544 127.314 210.226 C 126.264 206.321 124.451 201.005 123.095 196.716 C 119.253 198.045 115.439 199.476 111.668 200.966 C 105.622 197.934 99.649 194.326 93.694 191.202 C 91.050 189.855 87.953 188.206 85.433 186.636 L 85.437 159.730 C 88.959 156.228 92.148 152.588 95.609 149.158 C 94.441 148.094 92.901 146.436 91.769 145.295 C 89.706 143.214 87.526 141.063 85.548 138.906 L 85.534 112.025 C 86.488 111.454 87.591 110.797 88.589 110.285 C 96.248 106.276 103.739 101.614 111.395 97.644 L 122.677 102.434 C 124.219 98.165 125.767 92.621 127.091 88.224 C 134.818 83.879 142.946 79.744 150.096 75.858 z"
  fill="url(#cyanGrad)" filter="url(#glow)"/>

<!-- 4) INNER BLACK FILL -->
<path d="M 149.706 87.993 C 150.820 88.268 159.142 93.214 160.751 94.102 C 175.221 102.034 189.535 110.519 204.000 118.449 L 203.998 181.071 C 186.004 190.851 168.189 201.648 150.329 211.696 C 149.630 212.064 148.726 211.280 148.036 210.877 C 135.213 203.393 122.282 196.116 109.346 188.822 C 105.254 186.565 101.118 184.075 96.987 181.989 C 97.164 175.046 97.048 167.502 97.054 160.530 L 97.083 118.129 C 100.682 116.051 104.698 113.966 108.338 111.975 L 136.371 96.561 C 140.665 94.191 145.791 91.637 149.706 87.993 z"
  fill="rgb(0,0,0)"/>

<!-- 5) LETTER M -->
<path d="M 149.537 110.346 C 151.226 111.632 153.975 114.768 155.661 116.416 C 161.979 122.734 168.204 129.213 174.341 135.715 L 193.044 115.666 C 195.443 117.018 197.963 118.376 200.293 119.791 L 200.312 179.105 C 195.840 181.698 190.896 184.528 186.336 187.036 C 186.149 173.735 186.298 159.718 186.294 146.360 L 186.271 145.942 L 186.087 145.909 C 182.386 150.069 178.495 154.072 174.873 158.319 C 171.847 154.819 166.919 149.437 163.706 146.231 C 163.921 152.838 163.786 160.265 163.780 166.963 L 163.843 199.409 C 163.285 199.693 162.737 200.046 162.195 200.358 C 158.107 202.614 154.103 205.113 150.005 207.264 C 149.858 201.497 149.979 195.244 149.980 189.389 L 150.089 155.556 L 149.648 124.943 L 149.537 110.346 z"
  fill="url(#cyanGrad)" filter="url(#glow)"/>

<!-- 6) LETTER T -->
<path d="M 100.074 118.673 L 147.530 118.659 C 146.408 123.056 145.010 127.579 143.739 131.955 L 129.870 131.954 L 129.865 178.420 L 129.872 196.014 L 116.101 188.244 C 115.939 181.620 116.095 174.284 116.103 167.462 L 116.067 131.950 C 110.779 132.033 105.276 131.949 100.079 131.946 L 100.074 118.673 z"
  fill="url(#cyanGrad)" filter="url(#glow)"/>
</svg>
